<svg xmlns="http://www.w3.org/2000/svg" viewBox="0 0 64 64">
  <circle cx="32" cy="32" r="30" fill="#f8fafc"/>
  <circle cx="32" cy="32" r="29" fill="none" stroke="#d4d4d8" stroke-width="2"/>
  <g transform="translate(7 7) scale(0.0244140625)">

<defs>
	<linearGradient id="FaviconGradient1" gradientUnits="userSpaceOnUse" x1="405.6" y1="903.737" x2="436.091" y2="878.885">
		<stop class="stop0" offset="0" stop-opacity="0.94902" stop-color="rgb(0,0,0)"/>
		<stop class="stop1" offset="1" stop-opacity="0.988235" stop-color="rgb(0,0,0)"/>
	</linearGradient>
	<linearGradient id="FaviconGradient2" gradientUnits="userSpaceOnUse" x1="407.812" y1="1071.22" x2="434.198" y2="1040.91">
		<stop class="stop0" offset="0" stop-opacity="0.94902" stop-color="rgb(0,0,0)"/>
		<stop class="stop1" offset="1" stop-opacity="1" stop-color="rgb(0,0,0)"/>
	</linearGradient>
	<linearGradient id="FaviconGradient3" gradientUnits="userSpaceOnUse" x1="1458.5" y1="1071.72" x2="1484.57" y2="1041.2">
		<stop class="stop0" offset="0" stop-opacity="0.945098" stop-color="rgb(0,0,0)"/>
		<stop class="stop1" offset="1" stop-opacity="0.988235" stop-color="rgb(0,0,0)"/>
	</linearGradient>
	<linearGradient id="FaviconGradient4" gradientUnits="userSpaceOnUse" x1="813.876" y1="1023.82" x2="897.106" y2="1035.31">
		<stop class="stop0" offset="0" stop-opacity="0.941176" stop-color="rgb(3,4,4)"/>
		<stop class="stop1" offset="1" stop-opacity="0.972549" stop-color="rgb(3,6,6)"/>
	</linearGradient>
</defs>
<path transform="translate(0,0)" fill="rgb(1,2,2)" fill-opacity="0.960784" d="M 939.614 9.46403 C 1115.55 6.47755 1288.23 57.0557 1434.76 154.488 C 1623.48 280.256 1754.53 475.823 1799.09 698.19 C 1838.27 894.038 1811.07 1097.36 1721.8 1276.02 C 1704.56 1310.67 1681.09 1348.2 1659.75 1380.41 C 1664.56 1400.07 1681.62 1426.91 1669.84 1448.16 C 1666.03 1455.02 1656.96 1463.76 1651.36 1469.51 C 1616.28 1505.51 1581.02 1542.06 1543.8 1575.8 C 1527.34 1590.73 1493.35 1587.29 1475.79 1576.26 C 1453.82 1595.59 1407.34 1624.88 1381.94 1640.27 C 1255.08 1717.12 1126.29 1754.97 978.365 1762.55 C 757.401 1773.13 535.092 1686.06 371.226 1539.63 C 10.3085 1217.12 -19.3635 661.828 303.217 300.181 C 433.515 156.426 607.51 59.5566 798.34 24.5287 C 848.087 15.3135 889.461 12.3328 939.614 9.46403 z M 963.443 1622.85 C 1370.03 1614.66 1692.91 1278.27 1684.42 871.688 C 1675.93 465.109 1339.29 142.482 932.72 151.277 C 526.58 160.062 204.372 496.265 212.851 902.411 C 221.331 1308.56 557.291 1631.02 963.443 1622.85 z"/>
<path transform="translate(0,0)" fill="rgb(1,2,2)" fill-opacity="0.964706" d="M 948.509 371.452 C 963.861 370.34 991.66 372.8 1008.26 374.224 C 1144.53 385.919 1273.22 444.922 1367.53 544.501 C 1379.88 557.536 1374.85 571.131 1361.5 580.68 C 1354.23 581.549 1349.27 581.405 1341.95 581.302 C 1340.99 674.024 1341.84 768.798 1342.01 861.623 L 1342.2 1230.68 C 1360.53 1230.89 1378.87 1230.69 1397.2 1230.1 C 1396.65 1222.69 1396.04 1215.46 1395.98 1208.03 C 1385.68 1204.61 1384.73 1203.97 1377.6 1195.8 C 1375.81 1179.61 1376.67 1143.72 1376.68 1126.06 L 1376.97 995.884 L 1376.93 865.704 C 1376.9 843.264 1376.53 819.979 1377.31 797.536 C 1377.67 787.216 1381.97 783.493 1389.4 777.305 C 1404.53 774.913 1420.03 775.553 1435.33 775.601 C 1473.27 775.719 1511.55 774.729 1549.43 776.549 C 1558.66 776.993 1567.62 784.475 1568.45 793.416 C 1569.98 809.891 1569.34 828.497 1569.34 844.993 C 1569.48 883.608 1569.42 922.224 1569.14 960.838 C 1569.38 1013.88 1569.35 1066.93 1569.05 1119.97 C 1568.97 1141.18 1569.54 1162.54 1569.11 1183.7 C 1569.02 1188.02 1567.9 1193.39 1565.24 1196.78 C 1558.5 1205.35 1556.76 1205.7 1547.17 1207.4 C 1547.22 1213.12 1547.2 1218.84 1547.13 1224.55 C 1546.81 1238.52 1540.21 1246.32 1532.51 1257.37 C 1503.26 1299.29 1471.94 1339.72 1435.06 1375.27 C 1421.6 1376.79 1393.6 1375.89 1379.1 1375.83 L 1276.98 1375.62 C 1167.23 1375.74 1054.86 1376.91 945.25 1375.61 L 652.348 1375.8 C 624.661 1375.85 597.272 1377.05 570.015 1377.15 C 532.805 1377.16 495.595 1376.72 458.395 1375.81 C 451.741 1371.21 446.356 1364.9 440.748 1359.11 C 404.735 1321.92 375.844 1280.15 346.958 1237.42 C 346.625 1230.49 347.263 1211.26 342.65 1208.33 C 337.042 1204.77 333.75 1202.62 328.528 1197.3 L 327.352 1196.1 C 324.847 1172.2 325.665 1146.15 325.675 1121.94 L 325.781 1012.62 L 326.008 876.44 C 326.03 847.83 325.397 817.543 327.018 789.147 C 330.891 783.99 336.742 777.003 343.644 776.531 C 383.5 773.807 423.845 776.543 463.823 775.538 C 476.697 775.214 490.42 775.348 503.216 776.066 C 509.761 779.873 511.595 782.431 515.837 788.415 C 517.681 803.171 516.855 832.284 516.849 848.377 L 516.547 967.358 L 516.775 1117.01 C 516.848 1135.55 518.358 1176.94 515.965 1193.82 C 515.358 1194.68 514.739 1195.54 514.107 1196.39 C 508.166 1204.32 503.69 1205.34 494.448 1206.65 C 494.144 1215.46 493.912 1221.68 494.615 1230.41 C 513.858 1229.93 532.949 1230.55 552.71 1229.95 C 553.579 1214.27 552.837 1190.81 552.818 1174.32 L 552.715 1063.84 L 552.925 719.54 L 552.883 633.124 C 552.787 617.826 551.898 596.862 552.861 582.033 C 545.51 581.721 532.853 581.969 527.23 577.034 C 515.451 566.696 521.211 549.181 530.64 540.094 C 627.286 446.959 753.064 387.673 886.929 375.055 C 907.322 373.132 928.038 372.393 948.509 371.452 z M 599.118 1312.53 C 612.365 1310.27 631.722 1311.16 645.679 1311.29 C 668.265 1311.54 690.852 1311.64 713.439 1311.61 L 971.75 1311.17 L 1195.29 1311.76 C 1214.84 1311.73 1234.4 1311.59 1253.95 1311.34 C 1265.61 1311.22 1284.12 1310.55 1294.94 1312.33 C 1296.22 1206.02 1295.32 1099.56 1295.49 993.231 C 1295.52 970.715 1297.66 851.133 1293.4 838.102 C 1287.92 821.326 1251.41 781.732 1238.02 767.947 C 1163.87 690.798 1061.99 646.437 954.997 644.71 C 945.587 644.642 936.178 644.872 926.783 645.399 C 804.755 655.876 710.901 701.153 631.44 795.565 C 597.203 836.242 599.01 832.576 599.022 883.951 L 599.045 950.256 L 599.361 1173.55 L 599.041 1263.76 C 599.017 1277.82 599.952 1299.33 599.118 1312.53 z M 1482.56 947.053 C 1513.08 941.487 1533.3 912.228 1527.71 881.714 C 1522.13 851.2 1492.86 830.996 1462.35 836.597 C 1431.86 842.193 1411.68 871.435 1417.26 901.924 C 1422.83 932.414 1452.07 952.614 1482.56 947.053 z M 1462.41 1000.81 C 1431.65 1006.22 1411.16 1035.61 1416.72 1066.35 C 1422.27 1097.08 1451.76 1117.44 1482.47 1111.74 C 1512.98 1106.08 1533.18 1076.83 1527.66 1046.29 C 1522.13 1015.76 1492.97 995.424 1462.41 1000.81 z M 697.459 628.848 C 724.632 623.73 742.576 597.634 737.627 570.429 C 732.678 543.225 706.694 525.12 679.459 529.899 C 651.983 534.721 633.683 560.985 638.676 588.43 C 643.668 615.875 670.046 634.012 697.459 628.848 z M 425.481 1112.55 C 456.337 1110.05 479.401 1083.13 477.137 1052.26 C 474.873 1021.38 448.129 998.113 417.238 1000.14 C 386.01 1002.19 362.432 1029.29 364.72 1060.5 C 367.009 1091.71 394.288 1115.08 425.481 1112.55 z M 1212.18 629.227 C 1239.81 626.394 1259.88 601.633 1256.93 574.009 C 1253.97 546.385 1229.13 526.426 1201.52 529.498 C 1174.07 532.551 1154.26 557.214 1157.2 584.67 C 1160.13 612.125 1184.71 632.043 1212.18 629.227 z M 427.511 947.011 C 457.952 943.41 479.767 915.895 476.33 885.435 C 472.893 854.975 445.495 833.013 415.016 836.287 C 384.307 839.586 362.142 867.238 365.605 897.93 C 369.068 928.621 396.838 950.638 427.511 947.011 z M 1420.21 1205.99 C 1420.02 1213.99 1419.78 1221.99 1419.49 1229.98 C 1451.82 1230.52 1492.67 1229.44 1523.27 1231.1 C 1521.98 1222.33 1522.01 1214.88 1522.67 1206.01 L 1420.21 1205.99 z M 1043.52 579.29 C 1070.89 575.723 1090.13 550.563 1086.4 523.215 C 1082.66 495.868 1057.39 476.783 1030.06 480.681 C 1002.97 484.546 984.084 509.561 987.784 536.675 C 991.485 563.789 1016.38 582.827 1043.52 579.29 z M 369.755 1206.07 C 369.855 1214.18 370.116 1222.8 370.004 1230.87 C 379.064 1229.87 391.706 1230.54 401.036 1230.48 C 422.886 1230.33 445.425 1231.1 467.246 1230.13 L 469.86 1229.86 C 471.058 1227.71 471.353 1210.83 471.749 1206.14 C 449.357 1205.9 426.963 1205.88 404.57 1206.08 C 394.901 1206.14 378.809 1206.73 369.755 1206.07 z M 865.51 579.262 C 892.833 575.922 912.211 550.973 908.688 523.673 C 905.164 496.373 880.086 477.163 852.81 480.87 C 825.792 484.542 806.803 509.332 810.293 536.373 C 813.784 563.415 838.445 582.571 865.51 579.262 z"/>
<path transform="translate(0,0)" fill="rgb(1,2,2)" fill-opacity="0.956863" d="M 944.415 776.157 C 951.956 775.475 957.476 775.648 963.904 780.103 C 972.471 786.041 972.995 794.519 973.085 803.87 C 973.408 837.194 973.441 870.503 973.417 903.817 L 973.321 1090.5 L 973.527 1200.78 C 973.559 1215.8 974.336 1237.56 972.507 1252.6 C 971.845 1258.05 963.603 1263.89 958.827 1266.61 C 941.859 1269.69 926.499 1267.51 926.055 1246.93 C 925.638 1227.61 926.03 1208.37 926.028 1189.04 L 926.019 1066.5 L 925.958 889.897 C 925.933 856.821 925.217 822.935 926.162 789.99 C 933.193 780.609 933.556 780.537 944.415 776.157 z"/>
<path transform="translate(0,0)" fill="url(#FaviconGradient4)" d="M 848.217 857.194 C 872.492 855.144 878.746 864.837 878.9 887.537 C 879.558 984.054 879.264 1080.61 879.659 1177.12 C 879.711 1189.93 874.336 1197.74 862.489 1203.05 C 845.106 1204.18 832.354 1199.96 831.802 1180.03 C 831.295 1161.7 831.686 1143.28 831.74 1124.93 L 831.974 1018.9 L 831.861 928.109 C 831.842 910.514 831.151 887.231 833.215 870.159 C 838.662 863.984 841.008 861.204 848.217 857.194 z"/>
<path transform="translate(0,0)" fill="rgb(1,2,2)" fill-opacity="0.952941" d="M 1039.31 857.175 C 1042.82 856.695 1046.93 856.493 1050.42 857.246 C 1055.81 858.41 1061.04 861.797 1063.79 866.668 C 1066.57 871.578 1066.23 881.391 1066.38 887.012 C 1067.1 912.956 1067.59 1184.29 1065.52 1189.17 C 1062.53 1196.19 1056.19 1199.48 1049.67 1202.57 C 1033.57 1205.24 1029.81 1202.07 1020.13 1190.19 C 1018.44 1178.22 1019.07 1157.2 1019.09 1144.24 L 1019.19 1070.24 L 1019.15 949.157 C 1019.14 924.29 1018.53 896.913 1020.04 872.349 C 1025.7 863.123 1029.79 860.88 1039.31 857.175 z"/>
<path transform="translate(0,0)" fill="rgb(1,2,2)" fill-opacity="0.964706" d="M 1136.38 916.467 C 1164.22 918.433 1159.64 941.606 1159.68 962.34 L 1159.72 1015.66 L 1159.93 1081.27 C 1160.04 1095.84 1160.29 1110.19 1159.71 1124.77 C 1159.13 1139.44 1150.1 1144.54 1136.81 1147.09 C 1125.21 1145.07 1114.43 1141.67 1112.87 1128.13 C 1111.43 1115.63 1111.92 1103.07 1111.96 1090.51 L 1112.18 1035.05 C 1112.3 1003.97 1111.84 972.815 1112.67 941.773 C 1113.14 924.013 1119.31 918.27 1136.38 916.467 z"/>
<path transform="translate(0,0)" fill="rgb(1,2,2)" fill-opacity="0.956863" d="M 753.726 917.327 C 758.483 916.687 763.441 916.277 768.152 917.395 C 774.008 918.786 779.761 922.696 782.634 928.107 C 785.987 934.426 786.823 1124.63 783.86 1132.05 C 781.252 1138.57 776.279 1142.6 769.989 1145.31 C 766.127 1146.49 762.583 1147.35 758.515 1146.91 C 751.705 1146.17 745.904 1143.36 741.78 1137.78 C 741.522 1137.43 741.28 1137.07 741.026 1136.72 C 740.517 1136.01 740.199 1135.65 739.793 1134.88 C 738.254 1131.94 738.22 1127.88 738.067 1124.61 C 737.049 1102.9 736.62 939.421 739.247 932.121 C 741.813 924.989 747.218 920.697 753.726 917.327 z"/>
<path transform="translate(0,0)" fill="rgb(1,2,2)" fill-opacity="0.976471" d="M 1227.03 977.17 C 1238.12 977.318 1251.11 982.434 1251.7 994.571 C 1252.96 1020.84 1255.63 1056.02 1252.49 1081.73 C 1245.73 1090.79 1242.96 1093.22 1232.27 1095.56 C 1223.42 1096.35 1207.31 1089.86 1206.82 1080.24 C 1205.36 1051.69 1206.08 1022.04 1206.83 993.405 C 1207.06 984.483 1219.68 978.753 1227.03 977.17 z"/>
<path transform="translate(0,0)" fill="rgb(1,2,2)" fill-opacity="0.972549" d="M 664.598 977.21 C 677.233 976.23 682.662 980.821 690.625 989.382 C 692.265 1004.79 695.163 1074.66 688.873 1084.95 C 685.169 1091 678.847 1093.49 672.301 1095.24 C 666.894 1095.87 661.349 1095.42 656.42 1092.97 C 652.424 1090.98 648.598 1087.31 647.179 1083 C 643.537 1071.94 643.215 998.755 648.225 989.365 C 651.858 982.556 657.484 979.444 664.598 977.21 z"/>
<path transform="translate(0,0)" fill="url(#FaviconGradient3)" d="M 1474.12 1034.89 C 1486.19 1035.97 1495.13 1046.58 1494.14 1058.66 C 1493.14 1070.74 1482.58 1079.75 1470.5 1078.83 C 1458.3 1077.9 1449.19 1067.23 1450.2 1055.04 C 1451.2 1042.85 1461.94 1033.81 1474.12 1034.89 z"/>
<path transform="translate(0,0)" fill="url(#FaviconGradient2)" d="M 421.646 1034.56 C 433.837 1034.62 443.68 1044.53 443.64 1056.73 C 443.6 1068.92 433.691 1078.77 421.5 1078.74 C 409.29 1078.72 399.417 1068.79 399.457 1056.58 C 399.498 1044.37 409.436 1034.51 421.646 1034.56 z"/>
<path transform="translate(0,0)" fill="rgb(1,2,2)" fill-opacity="0.976471" d="M 1465.3 871.499 C 1476.86 867.465 1489.49 873.609 1493.45 885.191 C 1497.41 896.772 1491.18 909.363 1479.57 913.247 C 1472.62 915.573 1464.98 914.297 1459.16 909.842 C 1453.34 905.387 1450.12 898.334 1450.55 891.02 C 1451.08 882.133 1456.9 874.434 1465.3 871.499 z"/>
<path transform="translate(0,0)" fill="url(#FaviconGradient1)" d="M 416.922 871.242 L 430.612 871.668 C 448.529 884.384 447.184 903.267 427.571 913.184 C 425.753 913.473 423.922 913.667 422.084 913.767 C 413.153 914.196 409.273 910.302 403.145 904.797 C 397.659 888.797 399.08 876.633 416.922 871.242 z"/>
<path transform="translate(0,0)" fill="rgb(1,2,2)" fill-opacity="0.168627" d="M 295.922 1216.8 C 299.089 1219.08 302.77 1227.48 304.813 1231.47 L 303.799 1231.78 C 300.555 1229.45 296.957 1220.68 295.922 1216.8 z"/>
<path transform="translate(0,0)" fill="rgb(1,2,2)" fill-opacity="0.0117647" d="M 1313.23 249.755 L 1318.64 252.391 L 1318.44 253.716 C 1316.31 254.712 1317.09 254.52 1314.59 254.475 L 1313.23 249.755 z"/>
<path transform="translate(0,0)" fill="rgb(1,2,2)" fill-opacity="0.0313725" d="M 335.36 1286.56 L 336.681 1286.23 C 338.937 1287.73 338.943 1288.88 339.87 1291.52 L 338.435 1291.47 L 335.36 1286.56 z"/>
<path transform="translate(0,0)" fill="rgb(1,2,2)" fill-opacity="0.960784" d="M 1696.14 1464.19 C 1703.93 1465.38 1714.09 1468.24 1719.73 1473.72 C 1738.04 1491.51 1756.01 1509.96 1774.1 1527.97 L 1892.07 1645.67 C 1934.63 1688.3 1979.15 1732.17 2020.89 1775.59 C 2037.48 1796.01 2044.13 1829.14 2039.26 1854.05 C 2026.23 1920.8 1968.75 1957.94 1903.98 1948.29 C 1861.18 1938.43 1840.12 1908.09 1810.09 1877.93 L 1702.06 1768.83 L 1616.43 1682.84 C 1599.96 1666.24 1580.4 1647.26 1565.34 1629.71 C 1561.66 1625.43 1559.01 1620.36 1557.59 1614.9 C 1555.39 1606.3 1556.77 1597.18 1561.42 1589.62 C 1570.24 1575.04 1606.71 1542.67 1619.77 1529.46 C 1638.18 1510.83 1655.68 1489.8 1676.04 1473.2 C 1683.3 1467.28 1687.34 1466.42 1696.14 1464.19 z"/>
<path transform="translate(0,0)" fill="rgb(1,2,2)" fill-opacity="0.156863" d="M 1797.52 1546.47 L 1798.77 1546.13 C 1802.27 1547.6 1803.47 1550.07 1805.73 1553.22 C 1801.6 1551.17 1800.79 1549.89 1797.52 1546.47 z"/>

  </g>
</svg>
